<?xml version="1.0" encoding="utf-8"?>
<!-- Generated by Mocodo 4.3.3 -->
<svg width="2592" height="1566" viewBox="0 0 2592 1566" xmlns="http://www.w3.org/2000/svg">
<rect x="0" y="0" width="2592" height="1566" fill="#FFFFFF" stroke="none" stroke-width="0"/>

<!-- Entity GAMELOG_LOCATION__PUB_ -->
<g>
	<g>
		<rect x="271" y="18" width="186" height="26" fill="#FFFFFF" stroke="none" stroke-width="0" opacity="1"/>
		<rect x="271" y="44" width="186" height="116" fill="#FFFFFF" stroke="none" stroke-width="0" opacity="1"/>
		<rect x="271" y="18" width="186" height="142" fill="none" stroke="#000000" stroke-width="1.5" opacity="1"/>
		<line x1="271" y1="44" x2="457" y2="44" stroke="#000000" stroke-width="1"/>
	</g>
	<text x="277" y="36.6" fill="#000000" font-family="Trebuchet MS" font-size="14">GAMELOG_LOCATION (pub)</text>
	<text x="276" y="62.6" fill="#000000" font-family="Trebuchet MS" font-size="14">id</text>
	<line x1="276" y1="65" x2="289" y2="65" stroke="#000000" stroke-width="1"/>
	<text x="276" y="80.6" fill="#000000" font-family="Trebuchet MS" font-size="14">created_at</text>
	<text x="276" y="98.6" fill="#000000" font-family="Trebuchet MS" font-size="14">location</text>
	<text x="276" y="116.6" fill="#000000" font-family="Trebuchet MS" font-size="14">time</text>
	<text x="276" y="134.6" fill="#000000" font-family="Trebuchet MS" font-size="14">group_name</text>
	<text x="276" y="152.6" fill="#000000" font-family="Trebuchet MS" font-size="14">#world_id</text>
</g>

<!-- Entity GAMELOG_JOIN_LEAVE__PUB_ -->
<g>
	<g>
		<rect x="526" y="9" width="198" height="26" fill="#FFFFFF" stroke="none" stroke-width="0" opacity="1"/>
		<rect x="526" y="35" width="198" height="134" fill="#FFFFFF" stroke="none" stroke-width="0" opacity="1"/>
		<rect x="526" y="9" width="198" height="160" fill="none" stroke="#000000" stroke-width="1.5" opacity="1"/>
		<line x1="526" y1="35" x2="724" y2="35" stroke="#000000" stroke-width="1"/>
	</g>
	<text x="532" y="27.6" fill="#000000" font-family="Trebuchet MS" font-size="14">GAMELOG_JOIN_LEAVE (pub)</text>
	<text x="531" y="53.6" fill="#000000" font-family="Trebuchet MS" font-size="14">id</text>
	<line x1="531" y1="56" x2="544" y2="56" stroke="#000000" stroke-width="1"/>
	<text x="531" y="71.6" fill="#000000" font-family="Trebuchet MS" font-size="14">created_at</text>
	<text x="531" y="89.6" fill="#000000" font-family="Trebuchet MS" font-size="14">type</text>
	<text x="531" y="107.6" fill="#000000" font-family="Trebuchet MS" font-size="14">display_name</text>
	<text x="531" y="125.6" fill="#000000" font-family="Trebuchet MS" font-size="14">user_id</text>
	<text x="531" y="143.6" fill="#000000" font-family="Trebuchet MS" font-size="14">time</text>
	<text x="531" y="161.6" fill="#000000" font-family="Trebuchet MS" font-size="14">#location</text>
</g>

<!-- Entity MUTUAL_GRAPH_FRIENDS_OLD__PRI_ -->
<g>
	<g>
		<rect x="793" y="54" width="242" height="26" fill="#FFFFFF" stroke="none" stroke-width="0" opacity="1"/>
		<rect x="793" y="80" width="242" height="44" fill="#FFFFFF" stroke="none" stroke-width="0" opacity="1"/>
		<rect x="793" y="54" width="242" height="70" fill="none" stroke="#000000" stroke-width="1.5" opacity="1"/>
		<line x1="793" y1="80" x2="1035" y2="80" stroke="#000000" stroke-width="1"/>
	</g>
	<text x="799" y="72.6" fill="#000000" font-family="Trebuchet MS" font-size="14">MUTUAL_GRAPH_FRIENDS_OLD (pri)</text>
	<text x="798" y="98.6" fill="#000000" font-family="Trebuchet MS" font-size="14">friend_id</text>
	<line x1="798" y1="101" x2="857" y2="101" stroke="#000000" stroke-width="1"/>
	<text x="798" y="116.6" fill="#000000" font-family="Trebuchet MS" font-size="14">last_updated</text>
</g>

<!-- Entity FAVORITE_WORLD__PUB_ -->
<g>
	<g>
		<rect x="41" y="230" width="166" height="26" fill="#FFFFFF" stroke="none" stroke-width="0" opacity="1"/>
		<rect x="41" y="256" width="166" height="80" fill="#FFFFFF" stroke="none" stroke-width="0" opacity="1"/>
		<rect x="41" y="230" width="166" height="106" fill="none" stroke="#000000" stroke-width="1.5" opacity="1"/>
		<line x1="41" y1="256" x2="207" y2="256" stroke="#000000" stroke-width="1"/>
	</g>
	<text x="46" y="248.6" fill="#000000" font-family="Trebuchet MS" font-size="14">FAVORITE_WORLD (pub)</text>
	<text x="46" y="274.6" fill="#000000" font-family="Trebuchet MS" font-size="14">id</text>
	<line x1="46" y1="277" x2="59" y2="277" stroke="#000000" stroke-width="1"/>
	<text x="46" y="292.6" fill="#000000" font-family="Trebuchet MS" font-size="14">created_at</text>
	<text x="46" y="310.6" fill="#000000" font-family="Trebuchet MS" font-size="14">group_name</text>
	<text x="46" y="328.6" fill="#000000" font-family="Trebuchet MS" font-size="14">#world_id</text>
</g>

<!-- Entity WORLD__PUB_ -->
<g>
	<g>
		<rect x="290" y="185" width="148" height="26" fill="#FFFFFF" stroke="none" stroke-width="0" opacity="1"/>
		<rect x="290" y="211" width="148" height="170" fill="#FFFFFF" stroke="none" stroke-width="0" opacity="1"/>
		<rect x="290" y="185" width="148" height="196" fill="none" stroke="#000000" stroke-width="1.5" opacity="1"/>
		<line x1="290" y1="211" x2="438" y2="211" stroke="#000000" stroke-width="1"/>
	</g>
	<text x="321" y="203.6" fill="#000000" font-family="Trebuchet MS" font-size="14">WORLD (pub)</text>
	<text x="295" y="229.6" fill="#000000" font-family="Trebuchet MS" font-size="14">world_id</text>
	<line x1="295" y1="232" x2="352" y2="232" stroke="#000000" stroke-width="1"/>
	<text x="295" y="247.6" fill="#000000" font-family="Trebuchet MS" font-size="14">name</text>
	<text x="295" y="265.6" fill="#000000" font-family="Trebuchet MS" font-size="14">description</text>
	<text x="295" y="283.6" fill="#000000" font-family="Trebuchet MS" font-size="14">author_id</text>
	<text x="295" y="301.6" fill="#000000" font-family="Trebuchet MS" font-size="14">author_name</text>
	<text x="295" y="319.6" fill="#000000" font-family="Trebuchet MS" font-size="14">image_url</text>
	<text x="295" y="337.6" fill="#000000" font-family="Trebuchet MS" font-size="14">release_status</text>
	<text x="295" y="355.6" fill="#000000" font-family="Trebuchet MS" font-size="14">thumbnail_image_url</text>
	<text x="295" y="373.6" fill="#000000" font-family="Trebuchet MS" font-size="14">version</text>
</g>

<!-- Entity WORLD_MEMO__PUB_ -->
<g>
	<g>
		<rect x="554" y="239" width="142" height="26" fill="#FFFFFF" stroke="none" stroke-width="0" opacity="1"/>
		<rect x="554" y="265" width="142" height="62" fill="#FFFFFF" stroke="none" stroke-width="0" opacity="1"/>
		<rect x="554" y="239" width="142" height="88" fill="none" stroke="#000000" stroke-width="1.5" opacity="1"/>
		<line x1="554" y1="265" x2="696" y2="265" stroke="#000000" stroke-width="1"/>
	</g>
	<text x="560" y="257.6" fill="#000000" font-family="Trebuchet MS" font-size="14">WORLD_MEMO (pub)</text>
	<text x="559" y="283.6" fill="#000000" font-family="Trebuchet MS" font-size="14">#world_id</text>
	<line x1="559" y1="286" x2="623" y2="286" stroke="#000000" stroke-width="1"/>
	<text x="559" y="301.6" fill="#000000" font-family="Trebuchet MS" font-size="14">edited_at</text>
	<text x="559" y="319.6" fill="#000000" font-family="Trebuchet MS" font-size="14">memo</text>
</g>

<!-- Entity MUTUAL_GRAPH_LINKS_OLD__PRI_ -->
<g>
	<g>
		<rect x="802" y="239" width="224" height="26" fill="#FFFFFF" stroke="none" stroke-width="0" opacity="1"/>
		<rect x="802" y="265" width="224" height="62" fill="#FFFFFF" stroke="none" stroke-width="0" opacity="1"/>
		<rect x="802" y="239" width="224" height="88" fill="none" stroke="#000000" stroke-width="1.5" opacity="1"/>
		<line x1="802" y1="265" x2="1026" y2="265" stroke="#000000" stroke-width="1"/>
	</g>
	<text x="807" y="257.6" fill="#000000" font-family="Trebuchet MS" font-size="14">MUTUAL_GRAPH_LINKS_OLD (pri)</text>
	<text x="807" y="283.6" fill="#000000" font-family="Trebuchet MS" font-size="14">#friend_id</text>
	<line x1="807" y1="286" x2="874" y2="286" stroke="#000000" stroke-width="1"/>
	<text x="807" y="301.6" fill="#000000" font-family="Trebuchet MS" font-size="14">#mutual_id</text>
	<text x="807" y="319.6" fill="#000000" font-family="Trebuchet MS" font-size="14">date</text>
</g>

<!-- Entity FEED_ONLINE_OFFLINE__PRI_ -->
<g>
	<g>
		<rect x="1111" y="194" width="190" height="26" fill="#FFFFFF" stroke="none" stroke-width="0" opacity="1"/>
		<rect x="1111" y="220" width="190" height="152" fill="#FFFFFF" stroke="none" stroke-width="0" opacity="1"/>
		<rect x="1111" y="194" width="190" height="178" fill="none" stroke="#000000" stroke-width="1.5" opacity="1"/>
		<line x1="1111" y1="220" x2="1301" y2="220" stroke="#000000" stroke-width="1"/>
	</g>
	<text x="1116" y="212.6" fill="#000000" font-family="Trebuchet MS" font-size="14">FEED_ONLINE_OFFLINE (pri)</text>
	<text x="1116" y="238.6" fill="#000000" font-family="Trebuchet MS" font-size="14">id</text>
	<line x1="1116" y1="241" x2="1129" y2="241" stroke="#000000" stroke-width="1"/>
	<text x="1116" y="256.6" fill="#000000" font-family="Trebuchet MS" font-size="14">created_at</text>
	<text x="1116" y="274.6" fill="#000000" font-family="Trebuchet MS" font-size="14">type</text>
	<text x="1116" y="292.6" fill="#000000" font-family="Trebuchet MS" font-size="14">location</text>
	<text x="1116" y="310.6" fill="#000000" font-family="Trebuchet MS" font-size="14">world_name</text>
	<text x="1116" y="328.6" fill="#000000" font-family="Trebuchet MS" font-size="14">time</text>
	<text x="1116" y="346.6" fill="#000000" font-family="Trebuchet MS" font-size="14">group_name</text>
	<text x="1116" y="364.6" fill="#000000" font-family="Trebuchet MS" font-size="14">#user_id</text>
</g>

<!-- Entity FRIEND_LOG_CURRENT__PRI_ -->
<g>
	<g>
		<rect x="819" y="415" width="190" height="26" fill="#FFFFFF" stroke="none" stroke-width="0" opacity="1"/>
		<rect x="819" y="441" width="190" height="80" fill="#FFFFFF" stroke="none" stroke-width="0" opacity="1"/>
		<rect x="819" y="415" width="190" height="106" fill="none" stroke="#000000" stroke-width="1.5" opacity="1"/>
		<line x1="819" y1="441" x2="1009" y2="441" stroke="#000000" stroke-width="1"/>
	</g>
	<text x="824" y="433.6" fill="#000000" font-family="Trebuchet MS" font-size="14">FRIEND_LOG_CURRENT (pri)</text>
	<text x="824" y="459.6" fill="#000000" font-family="Trebuchet MS" font-size="14">#user_id</text>
	<line x1="824" y1="462" x2="879" y2="462" stroke="#000000" stroke-width="1"/>
	<text x="824" y="477.6" fill="#000000" font-family="Trebuchet MS" font-size="14">display_name</text>
	<text x="824" y="495.6" fill="#000000" font-family="Trebuchet MS" font-size="14">trust_level</text>
	<text x="824" y="513.6" fill="#000000" font-family="Trebuchet MS" font-size="14">friend_number</text>
</g>

<!-- Entity ACTIVITY_SESSION_V2__PRI_ -->
<g>
	<g>
		<rect x="1114" y="397" width="184" height="26" fill="#FFFFFF" stroke="none" stroke-width="0" opacity="1"/>
		<rect x="1114" y="423" width="184" height="116" fill="#FFFFFF" stroke="none" stroke-width="0" opacity="1"/>
		<rect x="1114" y="397" width="184" height="142" fill="none" stroke="#000000" stroke-width="1.5" opacity="1"/>
		<line x1="1114" y1="423" x2="1298" y2="423" stroke="#000000" stroke-width="1"/>
	</g>
	<text x="1119" y="415.6" fill="#000000" font-family="Trebuchet MS" font-size="14">ACTIVITY_SESSION_V2 (pri)</text>
	<text x="1119" y="441.6" fill="#000000" font-family="Trebuchet MS" font-size="14">session_id</text>
	<line x1="1119" y1="444" x2="1185" y2="444" stroke="#000000" stroke-width="1"/>
	<text x="1119" y="459.6" fill="#000000" font-family="Trebuchet MS" font-size="14">start_at</text>
	<text x="1119" y="477.6" fill="#000000" font-family="Trebuchet MS" font-size="14">end_at</text>
	<text x="1119" y="495.6" fill="#000000" font-family="Trebuchet MS" font-size="14">is_open_tail</text>
	<text x="1119" y="513.6" fill="#000000" font-family="Trebuchet MS" font-size="14">source_revision</text>
	<text x="1119" y="531.6" fill="#000000" font-family="Trebuchet MS" font-size="14">#user_id</text>
</g>

<!-- Entity NOTES__PRI_ -->
<g>
	<g>
		<rect x="1380" y="415" width="100" height="26" fill="#FFFFFF" stroke="none" stroke-width="0" opacity="1"/>
		<rect x="1380" y="441" width="100" height="80" fill="#FFFFFF" stroke="none" stroke-width="0" opacity="1"/>
		<rect x="1380" y="415" width="100" height="106" fill="none" stroke="#000000" stroke-width="1.5" opacity="1"/>
		<line x1="1380" y1="441" x2="1480" y2="441" stroke="#000000" stroke-width="1"/>
	</g>
	<text x="1393" y="433.6" fill="#000000" font-family="Trebuchet MS" font-size="14">NOTES (pri)</text>
	<text x="1385" y="459.6" fill="#000000" font-family="Trebuchet MS" font-size="14">#user_id</text>
	<line x1="1385" y1="462" x2="1440" y2="462" stroke="#000000" stroke-width="1"/>
	<text x="1385" y="477.6" fill="#000000" font-family="Trebuchet MS" font-size="14">display_name</text>
	<text x="1385" y="495.6" fill="#000000" font-family="Trebuchet MS" font-size="14">note</text>
	<text x="1385" y="513.6" fill="#000000" font-family="Trebuchet MS" font-size="14">created_at</text>
</g>

<!-- Entity NOTIFICATION__PRI_ -->
<g>
	<g>
		<rect x="1597" y="343" width="134" height="26" fill="#FFFFFF" stroke="none" stroke-width="0" opacity="1"/>
		<rect x="1597" y="369" width="134" height="224" fill="#FFFFFF" stroke="none" stroke-width="0" opacity="1"/>
		<rect x="1597" y="343" width="134" height="250" fill="none" stroke="#000000" stroke-width="1.5" opacity="1"/>
		<line x1="1597" y1="369" x2="1731" y2="369" stroke="#000000" stroke-width="1"/>
	</g>
	<text x="1602" y="361.6" fill="#000000" font-family="Trebuchet MS" font-size="14">NOTIFICATION (pri)</text>
	<text x="1602" y="387.6" fill="#000000" font-family="Trebuchet MS" font-size="14">id</text>
	<line x1="1602" y1="390" x2="1615" y2="390" stroke="#000000" stroke-width="1"/>
	<text x="1602" y="405.6" fill="#000000" font-family="Trebuchet MS" font-size="14">created_at</text>
	<text x="1602" y="423.6" fill="#000000" font-family="Trebuchet MS" font-size="14">type</text>
	<text x="1602" y="441.6" fill="#000000" font-family="Trebuchet MS" font-size="14">message</text>
	<text x="1602" y="459.6" fill="#000000" font-family="Trebuchet MS" font-size="14">world_name</text>
	<text x="1602" y="477.6" fill="#000000" font-family="Trebuchet MS" font-size="14">image_url</text>
	<text x="1602" y="495.6" fill="#000000" font-family="Trebuchet MS" font-size="14">invite_message</text>
	<text x="1602" y="513.6" fill="#000000" font-family="Trebuchet MS" font-size="14">request_message</text>
	<text x="1602" y="531.6" fill="#000000" font-family="Trebuchet MS" font-size="14">response_message</text>
	<text x="1602" y="549.6" fill="#000000" font-family="Trebuchet MS" font-size="14">expired</text>
	<text x="1602" y="567.6" fill="#000000" font-family="Trebuchet MS" font-size="14">#sender_user_id</text>
	<text x="1602" y="585.6" fill="#000000" font-family="Trebuchet MS" font-size="14">#receiver_user_id</text>
</g>

<!-- Entity FEED_AVATAR__PRI_ -->
<g>
	<g>
		<rect x="1845" y="388" width="252" height="26" fill="#FFFFFF" stroke="none" stroke-width="0" opacity="1"/>
		<rect x="1845" y="414" width="252" height="134" fill="#FFFFFF" stroke="none" stroke-width="0" opacity="1"/>
		<rect x="1845" y="388" width="252" height="160" fill="none" stroke="#000000" stroke-width="1.5" opacity="1"/>
		<line x1="1845" y1="414" x2="2097" y2="414" stroke="#000000" stroke-width="1"/>
	</g>
	<text x="1910" y="406.6" fill="#000000" font-family="Trebuchet MS" font-size="14">FEED_AVATAR (pri)</text>
	<text x="1850" y="432.6" fill="#000000" font-family="Trebuchet MS" font-size="14">id</text>
	<line x1="1850" y1="435" x2="1863" y2="435" stroke="#000000" stroke-width="1"/>
	<text x="1850" y="450.6" fill="#000000" font-family="Trebuchet MS" font-size="14">created_at</text>
	<text x="1850" y="468.6" fill="#000000" font-family="Trebuchet MS" font-size="14">owner_id</text>
	<text x="1850" y="486.6" fill="#000000" font-family="Trebuchet MS" font-size="14">avatar_name</text>
	<text x="1850" y="504.6" fill="#000000" font-family="Trebuchet MS" font-size="14">current_avatar_image_url</text>
	<text x="1850" y="522.6" fill="#000000" font-family="Trebuchet MS" font-size="14">current_avatar_thumbnail_image_url</text>
	<text x="1850" y="540.6" fill="#000000" font-family="Trebuchet MS" font-size="14">#user_id</text>
</g>

<!-- Entity ACTIVITY_SYNC_STATE_V2__PRI_ -->
<g>
	<g>
		<rect x="1099" y="609" width="214" height="26" fill="#FFFFFF" stroke="none" stroke-width="0" opacity="1"/>
		<rect x="1099" y="635" width="214" height="116" fill="#FFFFFF" stroke="none" stroke-width="0" opacity="1"/>
		<rect x="1099" y="609" width="214" height="142" fill="none" stroke="#000000" stroke-width="1.5" opacity="1"/>
		<line x1="1099" y1="635" x2="1313" y2="635" stroke="#000000" stroke-width="1"/>
	</g>
	<text x="1105" y="627.6" fill="#000000" font-family="Trebuchet MS" font-size="14">ACTIVITY_SYNC_STATE_V2 (pri)</text>
	<text x="1104" y="653.6" fill="#000000" font-family="Trebuchet MS" font-size="14">#user_id</text>
	<line x1="1104" y1="656" x2="1159" y2="656" stroke="#000000" stroke-width="1"/>
	<text x="1104" y="671.6" fill="#000000" font-family="Trebuchet MS" font-size="14">updated_at</text>
	<text x="1104" y="689.6" fill="#000000" font-family="Trebuchet MS" font-size="14">is_self</text>
	<text x="1104" y="707.6" fill="#000000" font-family="Trebuchet MS" font-size="14">source_last_created_at</text>
	<text x="1104" y="725.6" fill="#000000" font-family="Trebuchet MS" font-size="14">pending_session_start_at</text>
	<text x="1104" y="743.6" fill="#000000" font-family="Trebuchet MS" font-size="14">cached_range_days</text>
</g>

<!-- Entity USER__PRI_ -->
<g>
	<g>
		<rect x="1377" y="627" width="106" height="26" fill="#FFFFFF" stroke="none" stroke-width="0" opacity="1"/>
		<rect x="1377" y="653" width="106" height="80" fill="#FFFFFF" stroke="none" stroke-width="0" opacity="1"/>
		<rect x="1377" y="627" width="106" height="106" fill="none" stroke="#000000" stroke-width="1.5" opacity="1"/>
		<line x1="1377" y1="653" x2="1483" y2="653" stroke="#000000" stroke-width="1"/>
	</g>
	<text x="1397" y="645.6" fill="#000000" font-family="Trebuchet MS" font-size="14">USER (pri)</text>
	<text x="1382" y="671.6" fill="#000000" font-family="Trebuchet MS" font-size="14">user_id</text>
	<line x1="1382" y1="674" x2="1430" y2="674" stroke="#000000" stroke-width="1"/>
	<text x="1382" y="689.6" fill="#000000" font-family="Trebuchet MS" font-size="14">display_name</text>
	<text x="1382" y="707.6" fill="#000000" font-family="Trebuchet MS" font-size="14">trust_level</text>
	<text x="1382" y="725.6" fill="#000000" font-family="Trebuchet MS" font-size="14">friend_number</text>
</g>

<!-- Entity MODERATION__PRI_ -->
<g>
	<g>
		<rect x="1600" y="618" width="128" height="26" fill="#FFFFFF" stroke="none" stroke-width="0" opacity="1"/>
		<rect x="1600" y="644" width="128" height="98" fill="#FFFFFF" stroke="none" stroke-width="0" opacity="1"/>
		<rect x="1600" y="618" width="128" height="124" fill="none" stroke="#000000" stroke-width="1.5" opacity="1"/>
		<line x1="1600" y1="644" x2="1728" y2="644" stroke="#000000" stroke-width="1"/>
	</g>
	<text x="1605" y="636.6" fill="#000000" font-family="Trebuchet MS" font-size="14">MODERATION (pri)</text>
	<text x="1605" y="662.6" fill="#000000" font-family="Trebuchet MS" font-size="14">#user_id</text>
	<line x1="1605" y1="665" x2="1660" y2="665" stroke="#000000" stroke-width="1"/>
	<text x="1605" y="680.6" fill="#000000" font-family="Trebuchet MS" font-size="14">updated_at</text>
	<text x="1605" y="698.6" fill="#000000" font-family="Trebuchet MS" font-size="14">display_name</text>
	<text x="1605" y="716.6" fill="#000000" font-family="Trebuchet MS" font-size="14">block</text>
	<text x="1605" y="734.6" fill="#000000" font-family="Trebuchet MS" font-size="14">mute</text>
</g>

<!-- Entity FRIEND_LOG_HISTORY__PRI_ -->
<g>
	<g>
		<rect x="821" y="767" width="186" height="26" fill="#FFFFFF" stroke="none" stroke-width="0" opacity="1"/>
		<rect x="821" y="793" width="186" height="170" fill="#FFFFFF" stroke="none" stroke-width="0" opacity="1"/>
		<rect x="821" y="767" width="186" height="196" fill="none" stroke="#000000" stroke-width="1.5" opacity="1"/>
		<line x1="821" y1="793" x2="1007" y2="793" stroke="#000000" stroke-width="1"/>
	</g>
	<text x="826" y="785.6" fill="#000000" font-family="Trebuchet MS" font-size="14">FRIEND_LOG_HISTORY (pri)</text>
	<text x="826" y="811.6" fill="#000000" font-family="Trebuchet MS" font-size="14">id</text>
	<line x1="826" y1="814" x2="839" y2="814" stroke="#000000" stroke-width="1"/>
	<text x="826" y="829.6" fill="#000000" font-family="Trebuchet MS" font-size="14">created_at</text>
	<text x="826" y="847.6" fill="#000000" font-family="Trebuchet MS" font-size="14">type</text>
	<text x="826" y="865.6" fill="#000000" font-family="Trebuchet MS" font-size="14">display_name</text>
	<text x="826" y="883.6" fill="#000000" font-family="Trebuchet MS" font-size="14">previous_display_name</text>
	<text x="826" y="901.6" fill="#000000" font-family="Trebuchet MS" font-size="14">trust_level</text>
	<text x="826" y="919.6" fill="#000000" font-family="Trebuchet MS" font-size="14">previous_trust_level</text>
	<text x="826" y="937.6" fill="#000000" font-family="Trebuchet MS" font-size="14">friend_number</text>
	<text x="826" y="955.6" fill="#000000" font-family="Trebuchet MS" font-size="14">#user_id</text>
</g>

<!-- Entity FEED_GPS__PRI_ -->
<g>
	<g>
		<rect x="1144" y="776" width="124" height="26" fill="#FFFFFF" stroke="none" stroke-width="0" opacity="1"/>
		<rect x="1144" y="802" width="124" height="152" fill="#FFFFFF" stroke="none" stroke-width="0" opacity="1"/>
		<rect x="1144" y="776" width="124" height="178" fill="none" stroke="#000000" stroke-width="1.5" opacity="1"/>
		<line x1="1144" y1="802" x2="1268" y2="802" stroke="#000000" stroke-width="1"/>
	</g>
	<text x="1158" y="794.6" fill="#000000" font-family="Trebuchet MS" font-size="14">FEED_GPS (pri)</text>
	<text x="1149" y="820.6" fill="#000000" font-family="Trebuchet MS" font-size="14">id</text>
	<line x1="1149" y1="823" x2="1162" y2="823" stroke="#000000" stroke-width="1"/>
	<text x="1149" y="838.6" fill="#000000" font-family="Trebuchet MS" font-size="14">created_at</text>
	<text x="1149" y="856.6" fill="#000000" font-family="Trebuchet MS" font-size="14">location</text>
	<text x="1149" y="874.6" fill="#000000" font-family="Trebuchet MS" font-size="14">world_name</text>
	<text x="1149" y="892.6" fill="#000000" font-family="Trebuchet MS" font-size="14">previous_location</text>
	<text x="1149" y="910.6" fill="#000000" font-family="Trebuchet MS" font-size="14">time</text>
	<text x="1149" y="928.6" fill="#000000" font-family="Trebuchet MS" font-size="14">group_name</text>
	<text x="1149" y="946.6" fill="#000000" font-family="Trebuchet MS" font-size="14">#user_id</text>
</g>

<!-- Entity FEED_BIO__PRI_ -->
<g>
	<g>
		<rect x="1377" y="803" width="106" height="26" fill="#FFFFFF" stroke="none" stroke-width="0" opacity="1"/>
		<rect x="1377" y="829" width="106" height="98" fill="#FFFFFF" stroke="none" stroke-width="0" opacity="1"/>
		<rect x="1377" y="803" width="106" height="124" fill="none" stroke="#000000" stroke-width="1.5" opacity="1"/>
		<line x1="1377" y1="829" x2="1483" y2="829" stroke="#000000" stroke-width="1"/>
	</g>
	<text x="1383" y="821.6" fill="#000000" font-family="Trebuchet MS" font-size="14">FEED_BIO (pri)</text>
	<text x="1382" y="847.6" fill="#000000" font-family="Trebuchet MS" font-size="14">id</text>
	<line x1="1382" y1="850" x2="1395" y2="850" stroke="#000000" stroke-width="1"/>
	<text x="1382" y="865.6" fill="#000000" font-family="Trebuchet MS" font-size="14">created_at</text>
	<text x="1382" y="883.6" fill="#000000" font-family="Trebuchet MS" font-size="14">bio</text>
	<text x="1382" y="901.6" fill="#000000" font-family="Trebuchet MS" font-size="14">previous_bio</text>
	<text x="1382" y="919.6" fill="#000000" font-family="Trebuchet MS" font-size="14">#user_id</text>
</g>

<!-- Entity ACTIVITY_BUCKET_CACHE_V2__PRI_ -->
<g>
	<g>
		<rect x="1547" y="785" width="234" height="26" fill="#FFFFFF" stroke="none" stroke-width="0" opacity="1"/>
		<rect x="1547" y="811" width="234" height="134" fill="#FFFFFF" stroke="none" stroke-width="0" opacity="1"/>
		<rect x="1547" y="785" width="234" height="160" fill="none" stroke="#000000" stroke-width="1.5" opacity="1"/>
		<line x1="1547" y1="811" x2="1781" y2="811" stroke="#000000" stroke-width="1"/>
	</g>
	<text x="1553" y="803.6" fill="#000000" font-family="Trebuchet MS" font-size="14">ACTIVITY_BUCKET_CACHE_V2 (pri)</text>
	<text x="1552" y="829.6" fill="#000000" font-family="Trebuchet MS" font-size="14">#user_id</text>
	<line x1="1552" y1="832" x2="1607" y2="832" stroke="#000000" stroke-width="1"/>
	<text x="1552" y="847.6" fill="#000000" font-family="Trebuchet MS" font-size="14">target_user_id</text>
	<text x="1552" y="865.6" fill="#000000" font-family="Trebuchet MS" font-size="14">range_days</text>
	<text x="1552" y="883.6" fill="#000000" font-family="Trebuchet MS" font-size="14">view_kind</text>
	<text x="1552" y="901.6" fill="#000000" font-family="Trebuchet MS" font-size="14">exclude_key</text>
	<text x="1552" y="919.6" fill="#000000" font-family="Trebuchet MS" font-size="14">summary_json</text>
	<text x="1552" y="937.6" fill="#000000" font-family="Trebuchet MS" font-size="14">built_at</text>
</g>

<!-- Entity FEED_STATUS__PRI_ -->
<g>
	<g>
		<rect x="1876" y="785" width="190" height="26" fill="#FFFFFF" stroke="none" stroke-width="0" opacity="1"/>
		<rect x="1876" y="811" width="190" height="134" fill="#FFFFFF" stroke="none" stroke-width="0" opacity="1"/>
		<rect x="1876" y="785" width="190" height="160" fill="none" stroke="#000000" stroke-width="1.5" opacity="1"/>
		<line x1="1876" y1="811" x2="2066" y2="811" stroke="#000000" stroke-width="1"/>
	</g>
	<text x="1911" y="803.6" fill="#000000" font-family="Trebuchet MS" font-size="14">FEED_STATUS (pri)</text>
	<text x="1881" y="829.6" fill="#000000" font-family="Trebuchet MS" font-size="14">id</text>
	<line x1="1881" y1="832" x2="1894" y2="832" stroke="#000000" stroke-width="1"/>
	<text x="1881" y="847.6" fill="#000000" font-family="Trebuchet MS" font-size="14">created_at</text>
	<text x="1881" y="865.6" fill="#000000" font-family="Trebuchet MS" font-size="14">status</text>
	<text x="1881" y="883.6" fill="#000000" font-family="Trebuchet MS" font-size="14">status_description</text>
	<text x="1881" y="901.6" fill="#000000" font-family="Trebuchet MS" font-size="14">previous_status</text>
	<text x="1881" y="919.6" fill="#000000" font-family="Trebuchet MS" font-size="14">previous_status_description</text>
	<text x="1881" y="937.6" fill="#000000" font-family="Trebuchet MS" font-size="14">#user_id</text>
</g>

<!-- Entity FAVORITE_FRIEND__PUB_ -->
<g>
	<g>
		<rect x="1123" y="979" width="166" height="26" fill="#FFFFFF" stroke="none" stroke-width="0" opacity="1"/>
		<rect x="1123" y="1005" width="166" height="80" fill="#FFFFFF" stroke="none" stroke-width="0" opacity="1"/>
		<rect x="1123" y="979" width="166" height="106" fill="none" stroke="#000000" stroke-width="1.5" opacity="1"/>
		<line x1="1123" y1="1005" x2="1289" y2="1005" stroke="#000000" stroke-width="1"/>
	</g>
	<text x="1129" y="997.6" fill="#000000" font-family="Trebuchet MS" font-size="14">FAVORITE_FRIEND (pub)</text>
	<text x="1128" y="1023.6" fill="#000000" font-family="Trebuchet MS" font-size="14">id</text>
	<line x1="1128" y1="1026" x2="1141" y2="1026" stroke="#000000" stroke-width="1"/>
	<text x="1128" y="1041.6" fill="#000000" font-family="Trebuchet MS" font-size="14">created_at</text>
	<text x="1128" y="1059.6" fill="#000000" font-family="Trebuchet MS" font-size="14">group_name</text>
	<text x="1128" y="1077.6" fill="#000000" font-family="Trebuchet MS" font-size="14">#user_id_ref</text>
</g>

<!-- Entity MEMO__PUB_ -->
<g>
	<g>
		<rect x="1614" y="988" width="100" height="26" fill="#FFFFFF" stroke="none" stroke-width="0" opacity="1"/>
		<rect x="1614" y="1014" width="100" height="62" fill="#FFFFFF" stroke="none" stroke-width="0" opacity="1"/>
		<rect x="1614" y="988" width="100" height="88" fill="none" stroke="#000000" stroke-width="1.5" opacity="1"/>
		<line x1="1614" y1="1014" x2="1714" y2="1014" stroke="#000000" stroke-width="1"/>
	</g>
	<text x="1625" y="1006.6" fill="#000000" font-family="Trebuchet MS" font-size="14">MEMO (pub)</text>
	<text x="1619" y="1032.6" fill="#000000" font-family="Trebuchet MS" font-size="14">#user_id_ref2</text>
	<line x1="1619" y1="1035" x2="1708" y2="1035" stroke="#000000" stroke-width="1"/>
	<text x="1619" y="1050.6" fill="#000000" font-family="Trebuchet MS" font-size="14">edited_at</text>
	<text x="1619" y="1068.6" fill="#000000" font-family="Trebuchet MS" font-size="14">memo</text>
</g>

<!-- Entity AVATAR_TAG__PUB_ -->
<g>
	<g>
		<rect x="2172" y="1135" width="134" height="26" fill="#FFFFFF" stroke="none" stroke-width="0" opacity="1"/>
		<rect x="2172" y="1161" width="134" height="62" fill="#FFFFFF" stroke="none" stroke-width="0" opacity="1"/>
		<rect x="2172" y="1135" width="134" height="88" fill="none" stroke="#000000" stroke-width="1.5" opacity="1"/>
		<line x1="2172" y1="1161" x2="2306" y2="1161" stroke="#000000" stroke-width="1"/>
	</g>
	<text x="2177" y="1153.6" fill="#000000" font-family="Trebuchet MS" font-size="14">AVATAR_TAG (pub)</text>
	<text x="2177" y="1179.6" fill="#000000" font-family="Trebuchet MS" font-size="14">#avatar_id</text>
	<line x1="2177" y1="1182" x2="2246" y2="1182" stroke="#000000" stroke-width="1"/>
	<text x="2177" y="1197.6" fill="#000000" font-family="Trebuchet MS" font-size="14">tag</text>
	<text x="2177" y="1215.6" fill="#000000" font-family="Trebuchet MS" font-size="14">color</text>
</g>

<!-- Entity MUTUAL_GRAPH_FRIENDS__PRI_ -->
<g>
	<g>
		<rect x="521" y="1320" width="208" height="26" fill="#FFFFFF" stroke="none" stroke-width="0" opacity="1"/>
		<rect x="521" y="1346" width="208" height="26" fill="#FFFFFF" stroke="none" stroke-width="0" opacity="1"/>
		<rect x="521" y="1320" width="208" height="52" fill="none" stroke="#000000" stroke-width="1.5" opacity="1"/>
		<line x1="521" y1="1346" x2="729" y2="1346" stroke="#000000" stroke-width="1"/>
	</g>
	<text x="526" y="1338.6" fill="#000000" font-family="Trebuchet MS" font-size="14">MUTUAL_GRAPH_FRIENDS (pri)</text>
	<text x="526" y="1364.6" fill="#000000" font-family="Trebuchet MS" font-size="14">friend_id</text>
	<line x1="526" y1="1367" x2="585" y2="1367" stroke="#000000" stroke-width="1"/>
</g>

<!-- Entity AVATAR_MEMO__PUB_ -->
<g>
	<g>
		<rect x="1898" y="1302" width="146" height="26" fill="#FFFFFF" stroke="none" stroke-width="0" opacity="1"/>
		<rect x="1898" y="1328" width="146" height="62" fill="#FFFFFF" stroke="none" stroke-width="0" opacity="1"/>
		<rect x="1898" y="1302" width="146" height="88" fill="none" stroke="#000000" stroke-width="1.5" opacity="1"/>
		<line x1="1898" y1="1328" x2="2044" y2="1328" stroke="#000000" stroke-width="1"/>
	</g>
	<text x="1903" y="1320.6" fill="#000000" font-family="Trebuchet MS" font-size="14">AVATAR_MEMO (pub)</text>
	<text x="1903" y="1346.6" fill="#000000" font-family="Trebuchet MS" font-size="14">#avatar_id</text>
	<line x1="1903" y1="1349" x2="1972" y2="1349" stroke="#000000" stroke-width="1"/>
	<text x="1903" y="1364.6" fill="#000000" font-family="Trebuchet MS" font-size="14">edited_at</text>
	<text x="1903" y="1382.6" fill="#000000" font-family="Trebuchet MS" font-size="14">memo</text>
</g>

<!-- Entity AVATAR__PUB_ -->
<g>
	<g>
		<rect x="2165" y="1248" width="148" height="26" fill="#FFFFFF" stroke="none" stroke-width="0" opacity="1"/>
		<rect x="2165" y="1274" width="148" height="170" fill="#FFFFFF" stroke="none" stroke-width="0" opacity="1"/>
		<rect x="2165" y="1248" width="148" height="196" fill="none" stroke="#000000" stroke-width="1.5" opacity="1"/>
		<line x1="2165" y1="1274" x2="2313" y2="1274" stroke="#000000" stroke-width="1"/>
	</g>
	<text x="2194" y="1266.6" fill="#000000" font-family="Trebuchet MS" font-size="14">AVATAR (pub)</text>
	<text x="2170" y="1292.6" fill="#000000" font-family="Trebuchet MS" font-size="14">avatar_id</text>
	<line x1="2170" y1="1295" x2="2232" y2="1295" stroke="#000000" stroke-width="1"/>
	<text x="2170" y="1310.6" fill="#000000" font-family="Trebuchet MS" font-size="14">name</text>
	<text x="2170" y="1328.6" fill="#000000" font-family="Trebuchet MS" font-size="14">author_id</text>
	<text x="2170" y="1346.6" fill="#000000" font-family="Trebuchet MS" font-size="14">author_name</text>
	<text x="2170" y="1364.6" fill="#000000" font-family="Trebuchet MS" font-size="14">description</text>
	<text x="2170" y="1382.6" fill="#000000" font-family="Trebuchet MS" font-size="14">image_url</text>
	<text x="2170" y="1400.6" fill="#000000" font-family="Trebuchet MS" font-size="14">release_status</text>
	<text x="2170" y="1418.6" fill="#000000" font-family="Trebuchet MS" font-size="14">thumbnail_image_url</text>
	<text x="2170" y="1436.6" fill="#000000" font-family="Trebuchet MS" font-size="14">version</text>
</g>

<!-- Entity FAVORITE_AVATAR__PUB_ -->
<g>
	<g>
		<rect x="2381" y="1293" width="170" height="26" fill="#FFFFFF" stroke="none" stroke-width="0" opacity="1"/>
		<rect x="2381" y="1319" width="170" height="80" fill="#FFFFFF" stroke="none" stroke-width="0" opacity="1"/>
		<rect x="2381" y="1293" width="170" height="106" fill="none" stroke="#000000" stroke-width="1.5" opacity="1"/>
		<line x1="2381" y1="1319" x2="2551" y2="1319" stroke="#000000" stroke-width="1"/>
	</g>
	<text x="2386" y="1311.6" fill="#000000" font-family="Trebuchet MS" font-size="14">FAVORITE_AVATAR (pub)</text>
	<text x="2386" y="1337.6" fill="#000000" font-family="Trebuchet MS" font-size="14">id</text>
	<line x1="2386" y1="1340" x2="2399" y2="1340" stroke="#000000" stroke-width="1"/>
	<text x="2386" y="1355.6" fill="#000000" font-family="Trebuchet MS" font-size="14">created_at</text>
	<text x="2386" y="1373.6" fill="#000000" font-family="Trebuchet MS" font-size="14">group_name</text>
	<text x="2386" y="1391.6" fill="#000000" font-family="Trebuchet MS" font-size="14">#avatar_id</text>
</g>

<!-- Entity MUTUAL_GRAPH_LINKS__PRI_ -->
<g>
	<g>
		<rect x="529" y="1478" width="192" height="26" fill="#FFFFFF" stroke="none" stroke-width="0" opacity="1"/>
		<rect x="529" y="1504" width="192" height="44" fill="#FFFFFF" stroke="none" stroke-width="0" opacity="1"/>
		<rect x="529" y="1478" width="192" height="70" fill="none" stroke="#000000" stroke-width="1.5" opacity="1"/>
		<line x1="529" y1="1504" x2="721" y2="1504" stroke="#000000" stroke-width="1"/>
	</g>
	<text x="535" y="1496.6" fill="#000000" font-family="Trebuchet MS" font-size="14">MUTUAL_GRAPH_LINKS (pri)</text>
	<text x="534" y="1522.6" fill="#000000" font-family="Trebuchet MS" font-size="14">#friend_id</text>
	<line x1="534" y1="1525" x2="601" y2="1525" stroke="#000000" stroke-width="1"/>
	<text x="534" y="1540.6" fill="#000000" font-family="Trebuchet MS" font-size="14">#mutual_id</text>
</g>

<!-- Entity AVATAR_HISTORY__PRI_ -->
<g>
	<g>
		<rect x="2161" y="1469" width="156" height="26" fill="#FFFFFF" stroke="none" stroke-width="0" opacity="1"/>
		<rect x="2161" y="1495" width="156" height="62" fill="#FFFFFF" stroke="none" stroke-width="0" opacity="1"/>
		<rect x="2161" y="1469" width="156" height="88" fill="none" stroke="#000000" stroke-width="1.5" opacity="1"/>
		<line x1="2161" y1="1495" x2="2317" y2="1495" stroke="#000000" stroke-width="1"/>
	</g>
	<text x="2166" y="1487.6" fill="#000000" font-family="Trebuchet MS" font-size="14">AVATAR_HISTORY (pri)</text>
	<text x="2166" y="1513.6" fill="#000000" font-family="Trebuchet MS" font-size="14">#avatar_id</text>
	<line x1="2166" y1="1516" x2="2235" y2="1516" stroke="#000000" stroke-width="1"/>
	<text x="2166" y="1531.6" fill="#000000" font-family="Trebuchet MS" font-size="14">created_at</text>
	<text x="2166" y="1549.6" fill="#000000" font-family="Trebuchet MS" font-size="14">time</text>
</g>

<!-- Link from &quot;world_id&quot; (GAMELOG_LOCATION__PUB_) to &quot;world_id&quot; (WORLD__PUB_) -->
<path d="M271 148 C217 186.5 236 225 290 225" fill="none" stroke="#000000" stroke-width="1"/>
<polygon points="290 225 278 231 282 225 278 219" fill="#000000" stroke-width="0"/>
<circle cx="271" cy="148" r="1.5" stroke="#000000" stroke-width="1.5" fill="#000000"/>

<!-- Link from &quot;location&quot; (GAMELOG_JOIN_LEAVE__PUB_) to &quot;location&quot; (GAMELOG_LOCATION__PUB_) -->
<path d="M526 157 C491.5 125.5 503 94 457 94" fill="none" stroke="#000000" stroke-width="1"/>
<polygon points="457 94 469 88 465 94 469 100" fill="#000000" stroke-width="0"/>
<circle cx="526" cy="157" r="1.5" stroke="#000000" stroke-width="1.5" fill="#000000"/>

<!-- Link from &quot;world_id&quot; (FAVORITE_WORLD__PUB_) to &quot;world_id&quot; (WORLD__PUB_) -->
<path d="M207 324 C248.5 274.5 234.67 225 290 225" fill="none" stroke="#000000" stroke-width="1"/>
<polygon points="290 225 278 231 282 225 278 219" fill="#000000" stroke-width="0"/>
<circle cx="207" cy="324" r="1.5" stroke="#000000" stroke-width="1.5" fill="#000000"/>

<!-- Link from &quot;world_id&quot; (WORLD_MEMO__PUB_) to &quot;world_id&quot; (WORLD__PUB_) -->
<path d="M554 279 C496 252 515.33 225 438 225" fill="none" stroke="#000000" stroke-width="1"/>
<polygon points="438 225 450 219 446 225 450 231" fill="#000000" stroke-width="0"/>
<circle cx="554" cy="279" r="1.5" stroke="#000000" stroke-width="1.5" fill="#000000"/>

<!-- Link from &quot;friend_id&quot; (MUTUAL_GRAPH_LINKS_OLD__PRI_) to &quot;friend_id&quot; (MUTUAL_GRAPH_FRIENDS_OLD__PRI_) -->
<path d="M1026 279 C1080 186.5 1089 94 1035 94" fill="none" stroke="#000000" stroke-width="1"/>
<polygon points="1035 94 1047 88 1043 94 1047 100" fill="#000000" stroke-width="0"/>
<circle cx="1026" cy="279" r="1.5" stroke="#000000" stroke-width="1.5" fill="#000000"/>

<!-- Link from &quot;friend_id&quot; (MUTUAL_GRAPH_LINKS_OLD__PRI_) to &quot;friend_id&quot; (MUTUAL_GRAPH_FRIENDS_OLD__PRI_) -->
<path d="M802 297 C748 195.5 739 94 793 94" fill="none" stroke="#000000" stroke-width="1"/>
<polygon points="793 94 781 100 785 94 781 88" fill="#000000" stroke-width="0"/>
<circle cx="802" cy="297" r="1.5" stroke="#000000" stroke-width="1.5" fill="#000000"/>

<!-- Link from &quot;user_id&quot; (FEED_ONLINE_OFFLINE__PRI_) to &quot;user_id&quot; (USER__PRI_) -->
<path d="M1301 360 C1339 513.5 1326.33 667 1377 667" fill="none" stroke="#000000" stroke-width="1"/>
<polygon points="1377 667 1365 673 1369 667 1365 661" fill="#000000" stroke-width="0"/>
<circle cx="1301" cy="360" r="1.5" stroke="#000000" stroke-width="1.5" fill="#000000"/>

<!-- Link from &quot;user_id&quot; (FRIEND_LOG_CURRENT__PRI_) to &quot;user_id&quot; (USER__PRI_) -->
<path d="M1009 455 C1193 561 1131.67 667 1377 667" fill="none" stroke="#000000" stroke-width="1"/>
<polygon points="1377 667 1365 673 1369 667 1365 661" fill="#000000" stroke-width="0"/>
<circle cx="1009" cy="455" r="1.5" stroke="#000000" stroke-width="1.5" fill="#000000"/>

<!-- Link from &quot;user_id&quot; (ACTIVITY_SESSION_V2__PRI_) to &quot;user_id&quot; (USER__PRI_) -->
<path d="M1298 527 C1337.5 597 1324.33 667 1377 667" fill="none" stroke="#000000" stroke-width="1"/>
<polygon points="1377 667 1365 673 1369 667 1365 661" fill="#000000" stroke-width="0"/>
<circle cx="1298" cy="527" r="1.5" stroke="#000000" stroke-width="1.5" fill="#000000"/>

<!-- Link from &quot;user_id&quot; (NOTES__PRI_) to &quot;user_id&quot; (USER__PRI_) -->
<path d="M1480 455 C1534 561 1537 667 1483 667" fill="none" stroke="#000000" stroke-width="1"/>
<polygon points="1483 667 1495 661 1491 667 1495 673" fill="#000000" stroke-width="0"/>
<circle cx="1480" cy="455" r="1.5" stroke="#000000" stroke-width="1.5" fill="#000000"/>

<!-- Link from &quot;user_id&quot; (NOTIFICATION__PRI_) to &quot;user_id&quot; (USER__PRI_) -->
<path d="M1597 563 C1540 615 1559 667 1483 667" fill="none" stroke="#000000" stroke-width="1"/>
<polygon points="1483 667 1495 661 1491 667 1495 673" fill="#000000" stroke-width="0"/>
<circle cx="1597" cy="563" r="1.5" stroke="#000000" stroke-width="1.5" fill="#000000"/>

<!-- Link from &quot;user_id&quot; (NOTIFICATION__PRI_) to &quot;user_id&quot; (USER__PRI_) -->
<path d="M1597 581 C1540 624 1559 667 1483 667" fill="none" stroke="#000000" stroke-width="1"/>
<polygon points="1483 667 1495 661 1491 667 1495 673" fill="#000000" stroke-width="0"/>
<circle cx="1597" cy="581" r="1.5" stroke="#000000" stroke-width="1.5" fill="#000000"/>

<!-- Link from &quot;user_id&quot; (FEED_AVATAR__PRI_) to &quot;user_id&quot; (USER__PRI_) -->
<path d="M1845 536 C1664 601.5 1724.33 667 1483 667" fill="none" stroke="#000000" stroke-width="1"/>
<polygon points="1483 667 1495 661 1491 667 1495 673" fill="#000000" stroke-width="0"/>
<circle cx="1845" cy="536" r="1.5" stroke="#000000" stroke-width="1.5" fill="#000000"/>

<!-- Link from &quot;user_id&quot; (ACTIVITY_SYNC_STATE_V2__PRI_) to &quot;user_id&quot; (USER__PRI_) -->
<path d="M1313 649 C1345 658 1334.33 667 1377 667" fill="none" stroke="#000000" stroke-width="1"/>
<polygon points="1377 667 1365 673 1369 667 1365 661" fill="#000000" stroke-width="0"/>
<circle cx="1313" cy="649" r="1.5" stroke="#000000" stroke-width="1.5" fill="#000000"/>

<!-- Link from &quot;user_id&quot; (MODERATION__PRI_) to &quot;user_id&quot; (USER__PRI_) -->
<path d="M1600 658 C1541.5 662.5 1561 667 1483 667" fill="none" stroke="#000000" stroke-width="1"/>
<polygon points="1483 667 1495 661 1491 667 1495 673" fill="#000000" stroke-width="0"/>
<circle cx="1600" cy="658" r="1.5" stroke="#000000" stroke-width="1.5" fill="#000000"/>

<!-- Link from &quot;user_id&quot; (FRIEND_LOG_HISTORY__PRI_) to &quot;user_id&quot; (USER__PRI_) -->
<path d="M1007 951 C1192 809 1130.33 667 1377 667" fill="none" stroke="#000000" stroke-width="1"/>
<polygon points="1377 667 1365 673 1369 667 1365 661" fill="#000000" stroke-width="0"/>
<circle cx="1007" cy="951" r="1.5" stroke="#000000" stroke-width="1.5" fill="#000000"/>

<!-- Link from &quot;user_id&quot; (FEED_GPS__PRI_) to &quot;user_id&quot; (USER__PRI_) -->
<path d="M1268 942 C1322.5 804.5 1304.33 667 1377 667" fill="none" stroke="#000000" stroke-width="1"/>
<polygon points="1377 667 1365 673 1369 667 1365 661" fill="#000000" stroke-width="0"/>
<circle cx="1268" cy="942" r="1.5" stroke="#000000" stroke-width="1.5" fill="#000000"/>

<!-- Link from &quot;user_id&quot; (FEED_BIO__PRI_) to &quot;user_id&quot; (USER__PRI_) -->
<path d="M1483 915 C1537 791 1537 667 1483 667" fill="none" stroke="#000000" stroke-width="1"/>
<polygon points="1483 667 1495 661 1491 667 1495 673" fill="#000000" stroke-width="0"/>
<circle cx="1483" cy="915" r="1.5" stroke="#000000" stroke-width="1.5" fill="#000000"/>

<!-- Link from &quot;user_id&quot; (ACTIVITY_BUCKET_CACHE_V2__PRI_) to &quot;user_id&quot; (USER__PRI_) -->
<path d="M1547 825 C1515 746 1525.67 667 1483 667" fill="none" stroke="#000000" stroke-width="1"/>
<polygon points="1483 667 1495 661 1491 667 1495 673" fill="#000000" stroke-width="0"/>
<circle cx="1547" cy="825" r="1.5" stroke="#000000" stroke-width="1.5" fill="#000000"/>

<!-- Link from &quot;user_id&quot; (FEED_STATUS__PRI_) to &quot;user_id&quot; (USER__PRI_) -->
<path d="M1876 933 C1679.5 800 1745 667 1483 667" fill="none" stroke="#000000" stroke-width="1"/>
<polygon points="1483 667 1495 661 1491 667 1495 673" fill="#000000" stroke-width="0"/>
<circle cx="1876" cy="933" r="1.5" stroke="#000000" stroke-width="1.5" fill="#000000"/>

<!-- Link from &quot;user_id&quot; (FAVORITE_FRIEND__PUB_) to &quot;user_id&quot; (USER__PRI_) -->
<path d="M1289 1073 C1333 870 1318.33 667 1377 667" fill="none" stroke="#000000" stroke-width="1"/>
<polygon points="1377 667 1365 673 1369 667 1365 661" fill="#000000" stroke-width="0"/>
<circle cx="1289" cy="1073" r="1.5" stroke="#000000" stroke-width="1.5" fill="#000000"/>

<!-- Link from &quot;user_id&quot; (MEMO__PUB_) to &quot;user_id&quot; (USER__PRI_) -->
<path d="M1614 1028 C1548.5 847.5 1570.33 667 1483 667" fill="none" stroke="#000000" stroke-width="1"/>
<polygon points="1483 667 1495 661 1491 667 1495 673" fill="#000000" stroke-width="0"/>
<circle cx="1614" cy="1028" r="1.5" stroke="#000000" stroke-width="1.5" fill="#000000"/>

<!-- Link from &quot;avatar_id&quot; (AVATAR_TAG__PUB_) to &quot;avatar_id&quot; (AVATAR__PUB_) -->
<path d="M2306 1175 C2360 1231.5 2367 1288 2313 1288" fill="none" stroke="#000000" stroke-width="1"/>
<polygon points="2313 1288 2325 1282 2321 1288 2325 1294" fill="#000000" stroke-width="0"/>
<circle cx="2306" cy="1175" r="1.5" stroke="#000000" stroke-width="1.5" fill="#000000"/>

<!-- Link from &quot;avatar_id&quot; (AVATAR_MEMO__PUB_) to &quot;avatar_id&quot; (AVATAR__PUB_) -->
<path d="M2044 1342 C2104.5 1315 2084.33 1288 2165 1288" fill="none" stroke="#000000" stroke-width="1"/>
<polygon points="2165 1288 2153 1294 2157 1288 2153 1282" fill="#000000" stroke-width="0"/>
<circle cx="2044" cy="1342" r="1.5" stroke="#000000" stroke-width="1.5" fill="#000000"/>

<!-- Link from &quot;avatar_id&quot; (FAVORITE_AVATAR__PUB_) to &quot;avatar_id&quot; (AVATAR__PUB_) -->
<path d="M2381 1387 C2347 1337.5 2358.33 1288 2313 1288" fill="none" stroke="#000000" stroke-width="1"/>
<polygon points="2313 1288 2325 1282 2321 1288 2325 1294" fill="#000000" stroke-width="0"/>
<circle cx="2381" cy="1387" r="1.5" stroke="#000000" stroke-width="1.5" fill="#000000"/>

<!-- Link from &quot;friend_id&quot; (MUTUAL_GRAPH_LINKS__PRI_) to &quot;friend_id&quot; (MUTUAL_GRAPH_FRIENDS__PRI_) -->
<path d="M721 1518 C775 1439 783 1360 729 1360" fill="none" stroke="#000000" stroke-width="1"/>
<polygon points="729 1360 741 1354 737 1360 741 1366" fill="#000000" stroke-width="0"/>
<circle cx="721" cy="1518" r="1.5" stroke="#000000" stroke-width="1.5" fill="#000000"/>

<!-- Link from &quot;friend_id&quot; (MUTUAL_GRAPH_LINKS__PRI_) to &quot;friend_id&quot; (MUTUAL_GRAPH_FRIENDS__PRI_) -->
<path d="M529 1536 C475 1448 467 1360 521 1360" fill="none" stroke="#000000" stroke-width="1"/>
<polygon points="521 1360 509 1366 513 1360 509 1354" fill="#000000" stroke-width="0"/>
<circle cx="529" cy="1536" r="1.5" stroke="#000000" stroke-width="1.5" fill="#000000"/>

<!-- Link from &quot;avatar_id&quot; (AVATAR_HISTORY__PRI_) to &quot;avatar_id&quot; (AVATAR__PUB_) -->
<path d="M2317 1509 C2371 1398.5 2367 1288 2313 1288" fill="none" stroke="#000000" stroke-width="1"/>
<polygon points="2313 1288 2325 1282 2321 1288 2325 1294" fill="#000000" stroke-width="0"/>
<circle cx="2317" cy="1509" r="1.5" stroke="#000000" stroke-width="1.5" fill="#000000"/>
</svg>